<svg width="79" height="79" viewBox="0 0 79 79" fill="none" xmlns="http://www.w3.org/2000/svg">
<circle cx="39.5" cy="39.5" r="38.5" fill="white" stroke="#2C49FE" stroke-width="2"/>
<path d="M51.875 32.2812C51.875 30.9137 51.3318 29.6022 50.3648 28.6352C49.3978 27.6682 48.0863 27.125 46.7188 27.125H32.2812C30.9137 27.125 29.6022 27.6682 28.6352 28.6352C27.6682 29.6022 27.125 30.9137 27.125 32.2812V46.7188C27.125 48.0863 27.6682 49.3978 28.6352 50.3648C29.6022 51.3318 30.9137 51.875 32.2812 51.875H35.9051C35.3798 51.2388 34.9254 50.5472 34.55 49.8125H32.2812C31.4607 49.8125 30.6738 49.4866 30.0936 48.9064C29.5134 48.3262 29.1875 47.5393 29.1875 46.7188V35.375H38.1326C39.9785 34.0756 42.2287 33.3125 44.6562 33.3125C47.3994 33.3125 49.9156 34.286 51.875 35.9051V32.2812ZM44.6562 33.3125H29.1875V32.2812C29.1875 31.4607 29.5134 30.6738 30.0936 30.0936C30.6738 29.5134 31.4607 29.1875 32.2812 29.1875H46.7188C47.5393 29.1875 48.3262 29.5134 48.9064 30.0936C49.4866 30.6738 49.8125 31.4607 49.8125 32.2812V33.3125H44.6562ZM43.3672 40.5312C43.3672 40.1894 43.503 39.8615 43.7447 39.6197C43.9865 39.378 44.3144 39.2422 44.6562 39.2422C44.9981 39.2422 45.326 39.378 45.5678 39.6197C45.8095 39.8615 45.9453 40.1894 45.9453 40.5312C45.9453 40.8731 45.8095 41.201 45.5678 41.4428C45.326 41.6845 44.9981 41.8203 44.6562 41.8203C44.3144 41.8203 43.9865 41.6845 43.7447 41.4428C43.503 41.201 43.3672 40.8731 43.3672 40.5312ZM45.6875 48.7812C45.6875 49.0548 45.5789 49.3171 45.3855 49.5105C45.1921 49.7039 44.9298 49.8125 44.6562 49.8125C44.3827 49.8125 44.1204 49.7039 43.927 49.5105C43.7336 49.3171 43.625 49.0548 43.625 48.7812V44.6562C43.625 44.3827 43.7336 44.1204 43.927 43.927C44.1204 43.7336 44.3827 43.625 44.6562 43.625C44.9298 43.625 45.1921 43.7336 45.3855 43.927C45.5789 44.1204 45.6875 44.3827 45.6875 44.6562V48.7812ZM35.375 44.6562C35.375 43.4374 35.6151 42.2305 36.0815 41.1045C36.5479 39.9784 37.2316 38.9553 38.0934 38.0934C38.9553 37.2316 39.9784 36.5479 41.1045 36.0815C42.2305 35.6151 43.4374 35.375 44.6562 35.375C45.8751 35.375 47.082 35.6151 48.208 36.0815C49.3341 36.5479 50.3572 37.2316 51.2191 38.0934C52.0809 38.9553 52.7646 39.9784 53.231 41.1045C53.6974 42.2305 53.9375 43.4374 53.9375 44.6562C53.9375 47.1178 52.9597 49.4785 51.2191 51.2191C49.4785 52.9597 47.1178 53.9375 44.6562 53.9375C42.1947 53.9375 39.834 52.9597 38.0934 51.2191C36.3528 49.4785 35.375 47.1178 35.375 44.6562ZM37.4375 44.6562C37.4375 46.5708 38.198 48.4069 39.5518 49.7607C40.9056 51.1145 42.7417 51.875 44.6562 51.875C46.5708 51.875 48.4069 51.1145 49.7607 49.7607C51.1145 48.4069 51.875 46.5708 51.875 44.6562C51.875 42.7417 51.1145 40.9056 49.7607 39.5518C48.4069 38.198 46.5708 37.4375 44.6562 37.4375C42.7417 37.4375 40.9056 38.198 39.5518 39.5518C38.198 40.9056 37.4375 42.7417 37.4375 44.6562Z" fill="#2C49FE"/>
</svg>
